<svg height="16pt" viewBox="0 0 429.96113 429" width="16pt" xmlns="http://www.w3.org/2000/svg"><path d="m215 .480469c-86.960938-.015625-165.363281 52.363281-198.640625 132.707031-33.273437 80.34375-14.867187 172.820312 46.640625 234.292969 83.949219 83.949219 220.054688 83.949219 304 0 83.949219-83.945313 83.949219-220.050781 0-304-40.222656-40.453125-94.953125-63.136719-152-63zm116 163.402343-136.199219 130.097657c-1.859375 1.777343-4.328125 2.777343-6.898437 2.800781-2.65625-.011719-5.199219-1.050781-7.101563-2.898438l-77.300781-77.300781c-3.894531-3.894531-3.894531-10.207031 0-14.101562s10.207031-3.894531 14.101562 0l70.398438 70.402343 129.199219-123.402343c3.976562-3.808594 10.289062-3.675781 14.101562.300781s3.675781 10.289062-.300781 14.101562zm0 0"/></svg>