<svg height="16pt" viewBox="0 -3 413.7 413" width="16pt" xmlns="http://www.w3.org/2000/svg"><path d="m320.699219 207.25c1.101562 0 2.199219 0 3.300781.101562v-132.902343h-323.898438v229.800781c.015626 18.21875 14.78125 32.980469 33 33h183.097657c-1.648438-7.554688-2.484375-15.265625-2.5-23 .066406-59.066406 47.933593-106.933594 107-107zm-246.097657-40.898438h155c3.863282 0 7 3.132813 7 7 0 3.863282-3.136718 7-7 7h-155c-3.867187 0-7-3.136718-7-7 0-3.867187 3.132813-7 7-7zm92.796876 79h-92.796876c-3.867187 0-7-3.136718-7-7 0-3.867187 3.132813-7 7-7h92.796876c3.867187 0 7 3.132813 7 7 0 3.863282-3.132813 7-7 7zm0 0"/><path d="m320.699219 221.25c-51.363281 0-93 41.636719-93 93s41.636719 93 93 93 93-41.636719 93-93c-.042969-51.34375-41.65625-92.957031-93-93zm58.101562 69.398438-66.402343 63.5c-1.296876 1.226562-3.015626 1.90625-4.796876 1.902343-1.859374-.015625-3.644531-.726562-5-2l-37.703124-37.800781c-2.730469-2.734375-2.730469-7.167969 0-9.898438 2.734374-2.734374 7.167968-2.734374 9.902343 0l32.898438 32.898438 61.5-58.699219c1.335937-1.292969 3.132812-2 4.992187-1.964843 1.859375.039062 3.625.816406 4.910156 2.164062 2.613282 2.828125 2.480469 7.234375-.300781 9.898438zm0 0"/><path d="m324 33.351562c-.019531-18.21875-14.78125-32.984374-33-33h-44v22.097657c0 3.867187-3.132812 7-7 7s-7-3.132813-7-7v-22.097657h-142v22.097657c0 3.867187-3.132812 7-7 7s-7-3.132813-7-7v-22.097657h-44c-18.21875.015626-32.9804688 14.78125-33 33v27.199219h323.898438v-27.199219zm0 0"/></svg>