<svg id="svg" xmlns="http://www.w3.org/2000/svg" xmlns:xlink="http://www.w3.org/1999/xlink" width="30" height="30" viewBox="0, 0, 400,400"><g id="svgg"><path id="path0" d="M2.794 2.794 C -1.474 7.061,-1.474 392.939,2.794 397.206 C 7.450 401.863,318.165 401.418,322.391 396.749 C 325.014 393.851,325.333 386.569,325.333 329.691 L 325.333 265.884 362.667 228.403 C 384.360 206.624,400.000 189.541,400.000 187.626 C 400.000 183.017,359.391 142.222,354.803 142.222 C 352.703 142.222,345.789 147.592,338.264 155.067 L 325.333 167.911 325.333 133.084 C 325.333 99.828,325.155 98.026,321.385 93.129 C 311.349 80.092,254.855 10.922,250.042 5.778 L 244.636 -0.000 125.112 -0.000 C 18.824 -0.000,5.278 0.309,2.794 2.794 M234.667 60.382 C 234.667 113.891,230.046 108.444,275.439 108.444 L 309.333 108.444 309.333 146.209 L 309.333 183.974 266.056 227.542 L 222.778 271.111 211.815 300.444 C 194.699 346.244,194.724 346.268,240.340 329.409 L 272.787 317.416 291.060 299.816 L 309.333 282.216 309.333 333.108 L 309.333 384.000 162.667 384.000 L 16.000 384.000 16.000 200.000 L 16.000 16.000 125.333 16.000 L 234.667 16.000 234.667 60.382 M275.705 61.882 C 287.845 76.851,298.044 89.851,298.370 90.771 C 298.722 91.764,289.144 92.444,274.815 92.444 L 250.667 92.444 250.667 61.867 C 250.667 45.049,251.334 32.049,252.150 32.978 C 252.966 33.907,263.566 46.914,275.705 61.882 M52.741 143.407 C 50.146 146.003,51.636 154.585,54.994 156.382 C 59.728 158.915,240.716 158.915,245.450 156.382 C 249.294 154.325,250.022 147.622,246.756 144.356 C 244.433 142.033,55.041 141.107,52.741 143.407 M367.717 174.827 L 380.679 187.876 324.233 243.344 L 267.786 298.813 254.765 285.878 L 241.744 272.944 297.306 217.361 C 327.865 186.790,353.293 161.778,353.812 161.778 C 354.331 161.778,360.588 167.650,367.717 174.827 M53.689 194.133 C 50.947 196.876,50.947 203.124,53.689 205.867 C 56.500 208.678,240.221 208.958,245.450 206.160 C 249.294 204.103,250.022 197.399,246.756 194.133 C 243.679 191.056,56.766 191.056,53.689 194.133 M53.689 243.911 C 50.947 246.653,50.947 252.902,53.689 255.644 C 57.283 259.239,151.787 258.626,155.429 254.984 C 158.705 251.708,158.882 249.888,156.382 245.216 C 154.119 240.988,57.836 239.764,53.689 243.911 M251.097 307.657 C 249.366 309.152,223.653 318.475,223.039 317.830 C 222.778 317.557,225.064 310.735,228.119 302.670 L 233.673 288.007 243.044 297.262 C 248.199 302.352,251.822 307.030,251.097 307.657 M53.689 293.689 C 50.947 296.431,50.947 302.680,53.689 305.422 C 57.836 309.569,154.119 308.345,156.382 304.117 C 158.882 299.445,158.705 297.625,155.429 294.349 C 151.787 290.708,57.283 290.094,53.689 293.689 " stroke="none" fill="#000000" fill-rule="evenodd"></path></g></svg>