<svg id="svg" xmlns="http://www.w3.org/2000/svg" xmlns:xlink="http://www.w3.org/1999/xlink" width="64" height="64" viewBox="0, 0, 400,400"><g id="svgg"><path style ="fill: #2780E3" id="path0" d="M134.375 7.947 C -82.031 96.903,-28.668 399.688,203.460 399.939 C 464.944 400.221,471.698 9.737,210.345 1.945 C 175.369 0.902,145.836 3.235,134.375 7.947 M273.421 57.227 C 329.112 83.707,367.213 152.530,360.765 215.001 C 357.011 251.377,338.366 295.373,328.474 291.196 C 324.845 289.664,305.445 283.543,285.363 277.595 C 241.145 264.498,238.411 258.832,256.276 217.305 C 289.503 140.067,264.864 81.250,199.283 81.250 C 136.029 81.250,112.277 149.105,149.061 224.723 C 165.486 258.487,162.574 262.573,109.451 280.315 C 66.460 294.673,61.647 292.595,50.246 254.762 C 7.994 114.553,142.884 -4.839,273.421 57.227 " stroke="none" fill="#000000" fill-rule="evenodd"></path></g></svg>