<svg id="svg" xmlns="http://www.w3.org/2000/svg" xmlns:xlink="http://www.w3.org/1999/xlink" width="64" height="64" viewBox="0, 0, 400,400"><g id="svgg"><path style ="fill: #2780E3" id="path0" d="M114.590 15.754 C -80.302 112.873,-22.080 390.883,194.831 398.905 C 323.413 403.661,396.875 331.340,396.875 200.000 C 396.875 46.269,248.151 -50.802,114.590 15.754 M249.633 47.345 C 338.675 73.788,388.230 187.261,346.699 269.609 C 277.392 407.034,74.637 383.154,43.655 233.918 C 18.145 111.036,128.255 11.300,249.633 47.345 M224.235 170.177 L 182.845 214.725 158.858 194.953 L 134.871 175.180 117.336 191.980 C 95.981 212.439,94.555 208.970,142.482 253.129 L 181.840 289.392 247.524 222.826 L 313.209 156.260 295.667 140.828 C 271.586 119.642,270.943 119.906,224.235 170.177 " stroke="none" fill="#000000" fill-rule="evenodd"></path></g></svg>