<svg id="svg" xmlns="http://www.w3.org/2000/svg" xmlns:xlink="http://www.w3.org/1999/xlink" width="64" height="64" viewBox="0, 0, 400,400"><g id="svgg"><path style ="fill: #2780E3" id="path0" d="M125.000 10.593 C 25.166 46.795,-30.672 186.982,15.360 285.853 C 86.767 439.229,309.644 441.070,385.298 288.909 C 402.041 255.234,401.873 144.439,385.028 110.521 C 341.456 22.792,220.037 -23.869,125.000 10.593 M270.584 57.804 C 296.843 68.952,343.750 112.435,343.750 125.628 C 343.750 128.174,335.122 132.152,324.578 134.468 C 314.033 136.784,304.017 142.297,302.320 146.720 C 298.965 155.462,277.914 152.452,235.903 137.223 L 212.432 128.714 184.275 156.348 C 153.742 186.314,152.166 194.257,175.463 200.767 C 189.221 204.612,189.394 205.062,177.328 205.627 C 149.894 206.912,146.085 189.010,168.804 165.569 C 187.380 146.404,188.368 143.691,178.193 139.786 C 164.839 134.662,111.568 147.645,105.471 157.511 C 102.921 161.637,100.402 159.871,99.070 153.023 C 97.863 146.813,87.714 138.649,76.518 134.882 L 56.161 128.032 71.622 105.280 C 112.561 45.032,194.468 25.488,270.584 57.804 M258.920 206.372 C 292.219 237.865,311.604 242.603,313.225 219.644 C 313.805 211.431,314.546 211.688,316.927 220.929 C 319.247 229.932,324.490 231.947,340.676 230.058 L 361.449 227.633 349.671 258.628 C 297.711 395.377,95.470 392.907,48.463 254.949 L 38.587 225.962 59.918 229.424 C 77.195 232.228,81.250 230.863,81.250 222.246 C 81.250 212.574,82.143 212.500,91.071 221.429 C 102.587 232.945,118.750 234.422,118.750 223.958 C 118.750 219.948,120.351 218.268,122.308 220.225 C 124.265 222.182,122.156 229.853,117.621 237.272 C 110.412 249.065,110.947 251.907,121.875 259.874 C 128.750 264.886,138.595 272.450,143.752 276.681 C 172.337 300.134,188.406 307.028,197.293 299.653 C 203.667 294.363,206.250 294.242,206.250 299.235 C 206.250 303.093,210.469 306.250,215.625 306.250 C 220.781 306.250,225.000 303.438,225.000 300.000 C 225.000 296.563,230.625 293.750,237.500 293.750 C 244.375 293.750,250.000 290.938,250.000 287.500 C 250.000 284.063,254.219 281.250,259.375 281.250 C 264.531 281.250,268.750 278.438,268.750 275.000 C 268.750 271.563,272.668 268.750,277.456 268.750 C 300.401 268.750,293.269 247.116,259.561 214.467 C 225.074 181.065,224.935 181.002,207.803 191.229 L 190.625 201.483 206.250 188.381 C 225.955 171.856,220.428 169.968,258.920 206.372 M212.500 267.289 C 214.219 269.162,205.965 265.335,194.159 258.785 C 172.906 246.994,150.000 227.869,150.000 221.916 C 150.000 219.146,204.881 258.987,212.500 267.289 " stroke="none" fill="#000000" fill-rule="evenodd"></path></g></svg>