<svg id="svg" version="1.1" xmlns="http://www.w3.org/2000/svg" xmlns:xlink="http://www.w3.org/1999/xlink" width="64" height="64" viewBox="0, 0, 400,281.31868131868134"><g id="svgg"><path style ="fill: #2780E3" id="path0" d="M200.000 10.648 C 161.090 29.348,151.198 40.138,157.972 56.491 C 164.993 73.441,164.529 73.439,183.715 56.593 C 229.691 16.226,295.379 18.038,338.195 60.853 C 422.289 144.947,339.736 282.910,225.973 248.399 C 214.106 244.799,203.901 241.832,203.297 241.806 C 194.386 241.420,204.313 273.556,214.286 277.382 C 233.691 284.827,302.523 280.387,323.077 270.365 C 404.055 230.882,426.511 114.634,366.666 44.719 C 329.905 1.771,251.726 -14.210,200.000 10.648 M75.793 34.309 C 44.070 44.073,26.448 72.997,26.398 115.385 C 26.375 134.676,25.544 136.264,15.468 136.264 C 0.758 136.264,-0.582 143.759,0.934 217.582 L 2.198 279.121 89.545 280.314 C 197.368 281.788,189.011 287.497,189.011 212.360 C 189.011 148.397,185.833 136.264,169.076 136.264 C 158.698 136.264,158.242 135.088,158.242 108.342 C 158.242 57.449,118.002 21.317,75.793 34.309 M111.891 64.269 C 123.266 68.634,131.868 90.077,131.868 114.067 L 131.868 136.264 94.505 136.264 L 57.143 136.264 57.143 110.483 C 57.143 70.010,78.929 51.620,111.891 64.269 M259.341 71.994 C 259.341 75.327,253.313 80.551,245.947 83.602 C 210.661 98.218,214.424 133.328,253.246 151.694 C 286.000 167.189,276.808 184.306,242.210 172.245 C 227.357 167.067,224.176 168.964,224.176 182.996 C 224.176 193.832,235.540 202.198,250.260 202.198 C 255.401 202.198,259.341 205.058,259.341 208.791 C 259.341 218.277,267.733 216.912,279.608 205.495 C 285.266 200.055,293.900 192.143,298.794 187.912 C 318.955 170.484,308.899 142.449,277.153 127.580 C 250.543 115.117,250.608 107.666,277.327 107.760 C 297.515 107.832,303.116 104.229,303.229 91.099 C 303.274 85.960,298.892 82.416,290.391 80.716 C 283.293 79.296,276.432 75.389,275.144 72.034 C 272.110 64.126,259.341 64.094,259.341 71.994 " stroke="none" fill="#000000" fill-rule="evenodd"></path></g></svg>