<svg id="svg" xmlns="http://www.w3.org/2000/svg" xmlns:xlink="http://www.w3.org/1999/xlink" width="64" height="64" viewBox="0, 0, 400,400"><g id="svgg"><path style ="fill: #2780E3" id="path0" d="M134.375 7.947 C -81.428 96.656,-28.983 399.684,202.217 399.939 C 464.315 400.228,471.980 9.720,210.029 1.931 C 175.329 0.899,145.809 3.247,134.375 7.947 M273.421 57.406 C 347.692 92.220,383.649 196.345,346.699 269.609 C 269.693 422.299,42.188 371.979,42.188 202.256 C 42.188 81.227,162.909 5.605,273.421 57.406 M231.250 106.250 L 231.250 131.250 156.250 131.250 L 81.250 131.250 81.250 153.125 L 81.250 175.000 156.250 175.000 L 231.250 175.000 231.250 196.875 C 231.250 226.370,240.734 222.634,304.383 168.069 L 324.391 150.916 281.279 116.083 C 229.855 74.534,231.250 74.809,231.250 106.250 M122.739 214.063 C 72.956 253.971,73.103 247.457,121.111 286.409 C 168.141 324.566,175.000 325.924,175.000 297.073 L 175.000 275.397 248.438 273.636 L 321.875 271.875 323.833 251.563 L 325.792 231.250 248.668 231.250 L 171.545 231.250 173.929 206.250 C 177.023 173.801,172.009 174.566,122.739 214.063 " stroke="none" fill="#000000" fill-rule="evenodd"></path></g></svg>