<svg id="svg" xmlns="http://www.w3.org/2000/svg" xmlns:xlink="http://www.w3.org/1999/xlink" width="64" height="64" viewBox="0, 0, 400,243.8095238095238"><g id="svgg"><path style ="fill: #2780E3" id="path0" d="M226.041 9.234 C 179.269 31.012,132.395 109.499,168.278 105.956 C 178.839 104.913,181.076 102.622,185.988 87.823 C 207.833 22.005,296.430 2.734,346.586 52.890 C 419.082 125.386,345.472 248.520,249.239 215.730 C 239.221 212.317,230.472 209.524,229.798 209.524 C 222.425 209.524,230.093 236.958,238.343 240.094 C 291.856 260.440,364.000 230.192,390.360 176.358 C 440.316 74.333,329.121 -38.760,226.041 9.234 M32.192 31.826 C 2.006 45.491,-17.350 114.286,8.991 114.286 C 17.111 114.286,18.196 112.211,20.192 92.868 C 22.905 66.588,33.495 53.333,51.781 53.333 C 77.292 53.333,87.619 66.452,87.619 98.858 L 87.619 118.095 74.502 118.095 C 53.049 118.095,49.524 127.121,49.524 182.050 C 49.524 248.832,42.760 243.810,132.705 243.810 C 224.244 243.810,217.143 248.861,217.143 183.750 C 217.143 114.668,220.110 118.095,160.296 118.095 L 111.336 118.095 109.836 91.550 C 107.137 43.783,69.585 14.898,32.192 31.826 M274.286 64.664 C 274.286 66.706,269.384 70.910,263.394 74.008 C 235.493 88.436,239.984 117.263,272.363 131.582 C 302.513 144.916,297.693 158.169,265.791 149.654 C 250.151 145.479,249.243 146.056,246.848 161.677 C 245.991 167.265,248.969 169.995,259.048 172.864 C 266.381 174.952,273.752 178.911,275.427 181.663 C 279.496 188.346,289.240 188.029,291.888 181.128 C 293.057 178.082,299.861 172.139,307.007 167.923 C 332.360 152.964,322.913 123.073,288.256 108.592 C 269.047 100.566,272.114 93.168,294.340 93.920 C 309.133 94.421,312.007 93.301,313.885 86.301 C 317.269 73.685,316.964 73.156,304.762 70.476 C 298.476 69.096,293.333 66.388,293.333 64.459 C 293.333 62.530,289.048 60.952,283.810 60.952 C 278.571 60.952,274.286 62.623,274.286 64.664 " stroke="none" fill="#000000" fill-rule="evenodd"></path></g></svg>