<svg height="16pt" viewBox="0 -14 386 386" width="16pt" xmlns="http://www.w3.org/2000/svg"><path d="m102 140.398438c0 11.269531-9.132812 20.402343-20.398438 20.402343-11.269531 0-20.402343-9.132812-20.402343-20.402343 0-11.265626 9.132812-20.398438 20.402343-20.398438 11.265626 0 20.398438 9.132812 20.398438 20.398438zm0 0"/><path d="m191.199219 120c-11.265625 0-20.398438 9.132812-20.398438 20.398438 0 11.269531 9.132813 20.402343 20.398438 20.402343s20.402343-9.132812 20.402343-20.402343c-.046874-11.246094-9.15625-20.351563-20.402343-20.398438zm0 0"/><path d="m300.800781 120c-11.265625 0-20.402343 9.132812-20.402343 20.398438 0 11.269531 9.136718 20.402343 20.402343 20.402343s20.398438-9.132812 20.398438-20.402343c-.046875-11.246094-9.152344-20.351563-20.398438-20.398438zm0 0"/><path d="m353 0h-320c-18.21875.0195312-32.9804688 14.78125-33 33v215.898438c.0195312 18.21875 14.78125 32.984374 33 33h100.300781c2.457031.003906 4.734375 1.292968 6 3.402343l43.300781 71.699219 43.296876-71.699219c1.265624-2.109375 3.542968-3.398437 6-3.402343h121.101562c18.21875-.015626 32.980469-14.78125 33-33v-215.898438c-.019531-18.21875-14.78125-32.9804688-33-33zm-271.398438 174.800781c-19 0-34.402343-15.402343-34.402343-34.402343 0-18.996094 15.402343-34.398438 34.402343-34.398438 18.996094 0 34.398438 15.402344 34.398438 34.398438 0 19-15.402344 34.402343-34.398438 34.402343zm109.597657 0c-18.996094 0-34.398438-15.402343-34.398438-34.402343 0-18.996094 15.402344-34.398438 34.398438-34.398438 19 0 34.402343 15.402344 34.402343 34.398438 0 19-15.402343 34.402343-34.402343 34.402343zm109.601562 0c-19 0-34.402343-15.402343-34.402343-34.402343 0-18.996094 15.402343-34.398438 34.402343-34.398438 18.996094 0 34.398438 15.402344 34.398438 34.398438 0 19-15.402344 34.402343-34.398438 34.402343zm0 0"/></svg>