<svg height="16pt" viewBox="-4 0 366 366" width="16pt" xmlns="http://www.w3.org/2000/svg"><path d="m314.375 154.632812 42.882812-30.492187-39.058593-65.699219-47.324219 21.777344c-2.335938 1.074219-5.074219.78125-7.128906-.765625l-2.238282-1.679687c-10.175781-7.691407-21.253906-14.105469-32.988281-19.101563l-2.574219-1.101563c-2.363281-1.011718-3.984374-3.238281-4.21875-5.796874l-4.703124-51.773438h-75.875l-4.683594 51.765625c-.234375 2.5625-1.851563 4.789063-4.21875 5.800781l-2.578125 1.101563c-13.597657 5.828125-24.261719 11.976562-32.597657 18.800781l-2.273437 1.855469c-2.070313 1.691406-4.925781 2.058593-7.355469.941406l-47.441406-21.824219-38.15625 65.6875 42.902344 30.5c2.136718 1.515625 3.246094 4.097656 2.878906 6.695313l-.398438 2.832031c-1.050781 6.230469-1.636718 12.527344-1.761718 18.84375.117187 6.28125.699218 12.546875 1.738281 18.742188l.414063 2.902343c.367187 2.570313-.722657 5.132813-2.828126 6.65625l-2.40625 1.746094c-.054687.039063-.113281.074219-.167968.113281l-42.214844 28.738282 38.144531 65.652343 47.308594-21.765625c2.335937-1.074218 5.070313-.78125 7.125.757813l2.238281 1.679687c10.179688 7.6875 21.257813 14.105469 32.996094 19.101563l2.566406 1.097656c2.363282 1.011719 3.980469 3.242187 4.214844 5.800781l4.710938 51.777344h75.871093l4.695313-51.769531c.230468-2.558594 1.851562-4.785157 4.214844-5.796875l2.566406-1.101563c13.621094-5.84375 24.285156-11.992187 32.601562-18.800781l2.269532-1.855469c2.074218-1.695312 4.929687-2.0625 7.359374-.941406l47.441407 21.820313 38.183593-65.722657-40.300781-30.699219c-2.019531-1.542968-3.046875-4.054687-2.6875-6.570312l.394531-2.738281c1.039063-6.222657 1.621094-12.515625 1.738282-18.824219-.117188-6.3125-.703125-12.609375-1.746094-18.835938l-.398438-2.839843c-.371093-2.59375.734376-5.175781 2.867188-6.691407zm-135.75 133.503907c-58.953125 0-105.128906-46.183594-105.128906-105.136719 0-58.957031 46.179687-105.132812 105.128906-105.132812s105.140625 46.179687 105.140625 105.132812-46.183594 105.136719-105.140625 105.136719zm0 0"/><path d="m178.625 91.867188c-51.101562 0-91.128906 40.027343-91.128906 91.132812 0 51.101562 40.027344 91.136719 91.128906 91.136719s91.140625-40.035157 91.140625-91.136719-40.035156-91.132812-91.140625-91.132812zm0 142.332031c-28.277344 0-51.199219-22.921875-51.199219-51.199219s22.921875-51.199219 51.199219-51.199219 51.199219 22.921875 51.199219 51.199219c.304687 27.972656-22.125 50.898438-50.097657 51.199219-.367187 0-.734374 0-1.101562 0zm0 0"/><path d="m178.625 145.800781c-20.546875 0-37.199219 16.652344-37.199219 37.199219s16.652344 37.199219 37.199219 37.199219 37.199219-16.652344 37.199219-37.199219c.222656-20.324219-16.074219-36.980469-36.398438-37.199219-.265625 0-.535156 0-.800781 0zm0 0"/></svg>